<svg width="105" height="40" viewBox="0 0 105 40" fill="none" xmlns="http://www.w3.org/2000/svg">
<path d="M6.36 24.56H15.56V29H0.76V1.08H6.36V24.56ZM32.0794 29.28C29.466 29.28 27.066 28.6667 24.8794 27.44C22.6927 26.2133 20.9594 24.52 19.6794 22.36C18.3994 20.1733 17.7594 17.7067 17.7594 14.96C17.7594 12.24 18.3994 9.8 19.6794 7.64C20.9594 5.45333 22.6927 3.74666 24.8794 2.52C27.066 1.29333 29.466 0.68 32.0794 0.68C34.7194 0.68 37.1194 1.29333 39.2794 2.52C41.466 3.74666 43.186 5.45333 44.4394 7.64C45.7194 9.8 46.3594 12.24 46.3594 14.96C46.3594 17.7067 45.7194 20.1733 44.4394 22.36C43.186 24.52 41.466 26.2133 39.2794 27.44C37.0927 28.6667 34.6927 29.28 32.0794 29.28ZM32.0794 24.28C33.7594 24.28 35.2394 23.9067 36.5194 23.16C37.7994 22.3867 38.7994 21.2933 39.5194 19.88C40.2394 18.4667 40.5994 16.8267 40.5994 14.96C40.5994 13.0933 40.2394 11.4667 39.5194 10.08C38.7994 8.66667 37.7994 7.58667 36.5194 6.84C35.2394 6.09333 33.7594 5.72 32.0794 5.72C30.3994 5.72 28.906 6.09333 27.5994 6.84C26.3194 7.58667 25.3194 8.66667 24.5994 10.08C23.8794 11.4667 23.5194 13.0933 23.5194 14.96C23.5194 16.8267 23.8794 18.4667 24.5994 19.88C25.3194 21.2933 26.3194 22.3867 27.5994 23.16C28.906 23.9067 30.3994 24.28 32.0794 24.28ZM59.2056 6.48C60.859 6.48 62.3123 6.81333 63.5656 7.48C64.819 8.12 65.8056 8.96 66.5256 10V6.84H72.1656V29.16C72.1656 31.2133 71.7523 33.04 70.9256 34.64C70.099 36.2667 68.859 37.5467 67.2056 38.48C65.5523 39.44 63.5523 39.92 61.2056 39.92C58.059 39.92 55.4723 39.1867 53.4456 37.72C51.4456 36.2533 50.3123 34.2533 50.0456 31.72H55.6056C55.899 32.7333 56.5256 33.5333 57.4856 34.12C58.4723 34.7333 59.659 35.04 61.0456 35.04C62.6723 35.04 63.9923 34.5467 65.0056 33.56C66.019 32.6 66.5256 31.1333 66.5256 29.16V25.72C65.8056 26.76 64.8056 27.6267 63.5256 28.32C62.2723 29.0133 60.8323 29.36 59.2056 29.36C57.339 29.36 55.6323 28.88 54.0856 27.92C52.539 26.96 51.3123 25.6133 50.4056 23.88C49.5256 22.12 49.0856 20.1067 49.0856 17.84C49.0856 15.6 49.5256 13.6133 50.4056 11.88C51.3123 10.1467 52.5256 8.81333 54.0456 7.88C55.5923 6.94667 57.3123 6.48 59.2056 6.48ZM66.5256 17.92C66.5256 16.56 66.259 15.4 65.7256 14.44C65.1923 13.4533 64.4723 12.7067 63.5656 12.2C62.659 11.6667 61.6856 11.4 60.6456 11.4C59.6056 11.4 58.6456 11.6533 57.7656 12.16C56.8856 12.6667 56.1656 13.4133 55.6056 14.4C55.0723 15.36 54.8056 16.5067 54.8056 17.84C54.8056 19.1733 55.0723 20.3467 55.6056 21.36C56.1656 22.3467 56.8856 23.1067 57.7656 23.64C58.6723 24.1733 59.6323 24.44 60.6456 24.44C61.6856 24.44 62.659 24.1867 63.5656 23.68C64.4723 23.1467 65.1923 22.4 65.7256 21.44C66.259 20.4533 66.5256 19.28 66.5256 17.92ZM90.595 29.28C87.9817 29.28 85.5817 28.6667 83.395 27.44C81.2083 26.2133 79.475 24.52 78.195 22.36C76.915 20.1733 76.275 17.7067 76.275 14.96C76.275 12.24 76.915 9.8 78.195 7.64C79.475 5.45333 81.2083 3.74666 83.395 2.52C85.5817 1.29333 87.9817 0.68 90.595 0.68C93.235 0.68 95.635 1.29333 97.795 2.52C99.9817 3.74666 101.702 5.45333 102.955 7.64C104.235 9.8 104.875 12.24 104.875 14.96C104.875 17.7067 104.235 20.1733 102.955 22.36C101.702 24.52 99.9817 26.2133 97.795 27.44C95.6083 28.6667 93.2083 29.28 90.595 29.28ZM90.595 24.28C92.275 24.28 93.755 23.9067 95.035 23.16C96.315 22.3867 97.315 21.2933 98.035 19.88C98.755 18.4667 99.115 16.8267 99.115 14.96C99.115 13.0933 98.755 11.4667 98.035 10.08C97.315 8.66667 96.315 7.58667 95.035 6.84C93.755 6.09333 92.275 5.72 90.595 5.72C88.915 5.72 87.4217 6.09333 86.115 6.84C84.835 7.58667 83.835 8.66667 83.115 10.08C82.395 11.4667 82.035 13.0933 82.035 14.96C82.035 16.8267 82.395 18.4667 83.115 19.88C83.835 21.2933 84.835 22.3867 86.115 23.16C87.4217 23.9067 88.915 24.28 90.595 24.28Z" fill="white"/>
</svg>
